<svg xmlns="http://www.w3.org/2000/svg" width="256.0px" height="256.0px"><defs><clipPath id="a" clipPathUnits="userSpaceOnUse"><circle cx="128" cy="128" r="128" style="display:inline;fill:none;stroke:none"/></clipPath></defs><circle cx="128" cy="128" r="128" style="display:inline;fill:#fff;fill-opacity:1"/><circle cx="128" cy="128" r="128" clip-path="url(#a)" style="display:inline;fill:none;fill-opacity:1;stroke:#000;stroke-width:20;stroke-miterlimit:4;stroke-dasharray:none;stroke-opacity:.25"/><path d="M1354 4093c4-10 232-584 508-1276l501-1258-78-197c-101-255-136-322-214-404-71-76-163-129-258-149-69-14-224-7-300 15l-53 14V371l58-12c33-8 126-13 222-13 186-1 270 16 406 78 227 105 429 326 578 630 43 87 1196 3029 1196 3051 0 3-130 5-289 5h-289l-15-42c-218-623-639-1863-652-1920-10-43-22-78-26-78-3 0-16 39-28 88-12 48-160 507-328 1020l-307 932h-319c-300 0-319-1-313-17" style="fill:#000;stroke:none" transform="matrix(0.04083428,0,0,-0.04083428,26.336972,224.97794)"/></svg>
