<?xml version="1.0" encoding="UTF-8" standalone="no"?>
<!-- Created with Inkscape (http://www.inkscape.org/) -->

<svg
   inkscape:version="1.2 (dc2aedaf03, 2022-05-15)"
   sodipodi:docname="favicon.svg"
   id="SVGRoot"
   version="1.1"
   viewBox="0 0 256.0 256.0"
   height="256.0px"
   width="256.0px"
   xmlns:inkscape="http://www.inkscape.org/namespaces/inkscape"
   xmlns:sodipodi="http://sodipodi.sourceforge.net/DTD/sodipodi-0.dtd"
   xmlns="http://www.w3.org/2000/svg"
   xmlns:svg="http://www.w3.org/2000/svg">
  <sodipodi:namedview
     id="namedview14"
     pagecolor="#ffffff"
     bordercolor="#666666"
     borderopacity="1.0"
     inkscape:pageshadow="2"
     inkscape:pageopacity="0.0"
     inkscape:pagecheckerboard="0"
     inkscape:document-units="px"
     showgrid="true"
     inkscape:zoom="2.6308798"
     inkscape:cx="-51.123582"
     inkscape:cy="20.905554"
     inkscape:window-width="3840"
     inkscape:window-height="2068"
     inkscape:window-x="-12"
     inkscape:window-y="-12"
     inkscape:window-maximized="1"
     inkscape:current-layer="layer1"
     inkscape:showpageshadow="2"
     inkscape:deskcolor="#d1d1d1">
    <inkscape:grid
       type="xygrid"
       id="grid20" />
  </sodipodi:namedview>
  <defs
     id="defs9">
    <clipPath
       clipPathUnits="userSpaceOnUse"
       id="clipPath1867">
      <circle
         cx="128"
         cy="128"
         r="128"
         style="display:inline;fill:none;stroke:none"
         id="circle198" />
    </clipPath>
  </defs>
  <g
     inkscape:label="Layer 1"
     inkscape:groupmode="layer"
     id="layer1">
    <circle
       style="display:inline;fill:#ffffff;fill-opacity:1"
       id="path69"
       r="128"
       cy="128"
       cx="128" />
    <circle
       style="display:inline;fill:none;fill-opacity:1;stroke:#000000;stroke-width:20;stroke-miterlimit:4;stroke-dasharray:none;stroke-opacity:0.25"
       id="circle1613"
       cx="128"
       cy="128"
       r="128"
       clip-path="url(#clipPath1867)"
       inkscape:label="circle1613" />
    <path
       d="m 1354,4093 c 4,-10 232,-584 508,-1276 l 501,-1258 -78,-197 c -101,-255 -136,-322 -214,-404 -71,-76 -163,-129 -258,-149 -69,-14 -224,-7 -300,15 l -53,14 V 605 371 l 58,-12 c 33,-8 126,-13 222,-13 186,-1 270,16 406,78 227,105 429,326 578,630 43,87 1196,3029 1196,3051 0,3 -130,5 -289,5 h -289 l -15,-42 c -218,-623 -639,-1863 -652,-1920 -10,-43 -22,-78 -26,-78 -3,0 -16,39 -28,88 -12,48 -160,507 -328,1020 l -307,932 h -319 c -300,0 -319,-1 -313,-17 z"
       id="path69-1"
       transform="matrix(0.04083428,0,0,-0.04083428,26.336972,224.97794)"
       style="fill:#000000;stroke:none" />
  </g>
</svg>
